<svg width="408" height="62" viewBox="0 0 408 62" fill="none" xmlns="http://www.w3.org/2000/svg">
<path d="M1.26416 61.7835V12.3809H149.472M407.463 61.7835V12.3809H260.628" stroke="#DFDFDF"/>
<path d="M1.26416 61.7835V12.3809H149.472M407.463 61.7835V12.3809H260.628" stroke="url(#paint0_linear)"/>
<path d="M158.665 10.4749C158.665 13.6789 160.825 16.9729 165.217 16.9729C169.609 16.9729 171.769 13.6789 171.769 10.4749C171.769 7.2709 169.609 3.9769 165.217 3.9769C160.825 3.9769 158.665 7.2709 158.665 10.4749ZM170.689 10.4749C170.689 13.2109 168.907 15.9649 165.217 15.9649C161.527 15.9649 159.745 13.2109 159.745 10.4749C159.745 7.7389 161.527 4.9849 165.217 4.9849C168.907 4.9849 170.689 7.7389 170.689 10.4749ZM173.585 19.1689V16.7749H181.721V19.1689H182.729V15.8569H181.469V8.1349H175.295C175.313 11.5369 174.827 13.7689 173.729 15.8569H172.595V19.1689H173.585ZM176.267 9.0529H180.461V15.8569H174.827C175.727 13.9669 176.231 12.0049 176.267 9.0529ZM185.61 16.7749L191.478 9.7729V16.7749H192.486V8.1349H191.604L185.754 15.1369V8.1349H184.728V16.7749H185.61ZM196.319 16.7749V12.9229H201.935V16.7749H202.943V8.1349H201.935V11.9869H196.319V8.1349H195.293V16.7749H196.319ZM210.429 19.1689V16.7749H218.565V19.1689H219.573V15.8569H218.313V8.1349H212.139C212.157 11.5369 211.671 13.7689 210.573 15.8569H209.439V19.1689H210.429ZM213.111 9.0529H217.305V15.8569H211.671C212.571 13.9669 213.075 12.0049 213.111 9.0529ZM220.82 12.4549C220.82 15.5689 223.052 16.9729 225.572 16.9729C226.67 16.9729 227.768 16.7569 228.542 16.3429V15.3349C227.804 15.7669 226.76 16.0369 225.716 16.0369C223.79 16.0369 221.972 15.1189 221.846 12.9229H229.028C229.478 10.6549 228.362 7.9369 225.086 7.9369C222.998 7.9369 220.82 9.4849 220.82 12.4549ZM228.128 12.0229H221.846C221.936 9.9709 223.466 8.8729 225.158 8.8729C227.588 8.8729 228.272 10.7989 228.128 12.0229ZM232.266 16.7749V12.9229H237.882V16.7749H238.89V8.1349H237.882V11.9869H232.266V8.1349H231.24V16.7749H232.266ZM245.659 16.7749C247.693 16.7749 248.953 15.6049 248.953 14.0209C248.953 12.4549 247.693 11.2849 245.659 11.2849H242.725V8.1349H241.699V16.7749H245.659ZM242.707 12.2029H245.515C246.973 12.2029 247.909 12.8689 247.909 14.0209C247.909 15.1729 246.991 15.8569 245.515 15.8569H242.707V12.2029Z" fill="#DFDFDF"/>
<defs>
<linearGradient id="paint0_linear" x1="204.364" y1="65.9003" x2="204.364" y2="8.95012" gradientUnits="userSpaceOnUse">
<stop stop-color="white"/>
<stop offset="1" stop-color="white" stop-opacity="0"/>
</linearGradient>
</defs>
</svg>
