<svg width="30" height="30" viewBox="0 0 30 30" fill="none" xmlns="http://www.w3.org/2000/svg">
<path d="M29.9034 8.85464C29.8866 7.59501 29.6504 6.34789 29.2054 5.16909C28.8194 4.17477 28.23 3.27176 27.4747 2.51774C26.7195 1.76371 25.8149 1.17527 24.819 0.789999C23.6534 0.353183 22.422 0.116989 21.1773 0.0914737C19.5746 0.019958 19.0665 0 14.9983 0C10.9301 0 10.4087 1.11759e-07 8.81775 0.0914737C7.57357 0.117176 6.34276 0.353368 5.1777 0.789999C4.18157 1.175 3.27691 1.76335 2.5216 2.51741C1.76629 3.27146 1.17696 4.17462 0.791315 5.16909C0.352895 6.33185 0.11682 7.56089 0.0932919 8.80308C0.021657 10.4047 0 10.912 0 14.9734C0 19.0348 -1.49012e-08 19.5537 0.0932919 21.1437C0.118281 22.3877 0.353176 23.6151 0.791315 24.781C1.17761 25.7752 1.76737 26.678 2.52294 27.4317C3.2785 28.1854 4.18325 28.7736 5.17937 29.1584C6.34124 29.6128 7.57226 29.8659 8.81942 29.9069C10.4237 29.9784 10.9318 30 15 30C19.0682 30 19.5896 30 21.1806 29.9069C22.4253 29.8824 23.6568 29.6467 24.8223 29.21C25.818 28.8243 26.7223 28.2357 27.4775 27.4817C28.2327 26.7278 28.8223 25.825 29.2087 24.8309C29.6468 23.6667 29.8817 22.4393 29.9067 21.1936C29.9783 19.5936 30 19.0864 30 15.0233C29.9967 10.9619 29.9967 10.4463 29.9034 8.85464ZM14.9883 22.6538C10.7336 22.6538 7.28676 19.2128 7.28676 14.9651C7.28676 10.7174 10.7336 7.27631 14.9883 7.27631C17.0309 7.27631 18.9899 8.08637 20.4342 9.5283C21.8785 10.9702 22.6899 12.9259 22.6899 14.9651C22.6899 17.0043 21.8785 18.9599 20.4342 20.4019C18.9899 21.8438 17.0309 22.6538 14.9883 22.6538ZM22.9964 8.78479C22.0019 8.78479 21.2006 7.98315 21.2006 6.99191C21.2006 6.75657 21.247 6.52354 21.3372 6.30612C21.4274 6.0887 21.5596 5.89114 21.7263 5.72474C21.893 5.55833 22.0909 5.42633 22.3087 5.33627C22.5265 5.24621 22.7599 5.19986 22.9956 5.19986C23.2313 5.19986 23.4648 5.24621 23.6825 5.33627C23.9003 5.42633 24.0982 5.55833 24.2649 5.72474C24.4316 5.89114 24.5638 6.0887 24.654 6.30612C24.7442 6.52354 24.7907 6.75657 24.7907 6.99191C24.7907 7.98315 23.9877 8.78479 22.9964 8.78479Z" fill="white"/>
<path d="M14.9883 19.96C17.7512 19.96 19.991 17.7239 19.991 14.9656C19.991 12.2072 17.7512 9.9711 14.9883 9.9711C12.2253 9.9711 9.98547 12.2072 9.98547 14.9656C9.98547 17.7239 12.2253 19.96 14.9883 19.96Z" fill="white"/>
</svg>
