<svg width="30" height="30" viewBox="0 0 30 30" fill="none" xmlns="http://www.w3.org/2000/svg">
<path d="M19.6095 0H10.4055C1.9995 0 0 1.9995 0 10.3905V19.5945C0 27.999 1.9845 30 10.3905 30H19.5945C27.999 30 30 28.0155 30 19.6095V10.4055C30 1.9995 28.0155 0 19.6095 0ZM24.219 21.405H22.0305C21.2025 21.405 20.9535 20.7345 19.4685 19.2495C18.1725 18 17.625 17.844 17.2965 17.844C16.8435 17.844 16.719 17.9685 16.719 18.594V20.562C16.719 21.0945 16.5465 21.4065 15.156 21.4065C13.8065 21.3158 12.4979 20.9058 11.3379 20.2103C10.1779 19.5148 9.19975 18.5536 8.484 17.406C6.78475 15.291 5.60241 12.8087 5.031 10.1565C5.031 9.828 5.1555 9.531 5.781 9.531H7.968C8.5305 9.531 8.733 9.7815 8.9535 10.359C10.0155 13.485 11.8275 16.203 12.5625 16.203C12.8445 16.203 12.9675 16.0785 12.9675 15.375V12.156C12.8745 10.6875 12.0945 10.563 12.0945 10.032C12.1045 9.89194 12.1687 9.7613 12.2734 9.66777C12.3782 9.57424 12.5152 9.52518 12.6555 9.531H16.0935C16.563 9.531 16.719 9.765 16.719 10.3275V14.6715C16.719 15.141 16.9215 15.297 17.0625 15.297C17.3445 15.297 17.562 15.141 18.078 14.625C19.1863 13.2734 20.0918 11.7676 20.766 10.155C20.8349 9.9613 20.9653 9.79546 21.1373 9.68279C21.3093 9.57012 21.5134 9.51681 21.7185 9.531H23.907C24.5625 9.531 24.702 9.8595 24.5625 10.3275C23.7667 12.1101 22.7821 13.8023 21.6255 15.375C21.39 15.735 21.2955 15.9225 21.6255 16.344C21.843 16.6725 22.6095 17.313 23.1255 17.922C23.8754 18.67 24.498 19.5353 24.969 20.484C25.1565 21.093 24.843 21.4065 24.219 21.4065V21.405Z" fill="white"/>
</svg>
